<svg xmlns="http://www.w3.org/2000/svg" viewBox="0 0 150 150">
  <!-- 風の軌跡 3本 -->
  <path d="M20,120 Q50,80 80,70 Q110,60 130,30" stroke="#fbcfe8" stroke-width="1.0" opacity="0.4" fill="none"/>
  <path d="M25,130 Q60,95 90,80 Q115,68 135,45" stroke="#fbcfe8" stroke-width="1.0" opacity="0.4" fill="none"/>
  <path d="M15,110 Q45,75 70,65 Q100,52 125,25" stroke="#fbcfe8" stroke-width="1.0" opacity="0.4" fill="none"/>

  <!-- 花びら1（左下寄り、大きめ） -->
  <g transform="translate(50,90) rotate(-20)">
    <path d="M0,-14 C6,-10 10,0 8,8 C6,14 2,14 0,14 C-2,14 -6,14 -8,8 C-10,0 -6,-10 0,-14 Z" fill="#db2777"/>
    <path d="M0,-10 Q1,0 0,12" stroke="#b91c63" stroke-width="0.8" fill="none"/>
  </g>

  <!-- 花びら2（右上寄り、やや小さめ） -->
  <g transform="translate(100,50) rotate(15)">
    <path d="M0,-12 C5,-8.5 8.5,0 6.8,6.8 C5.1,12 1.7,12 0,12 C-1.7,12 -5.1,12 -6.8,6.8 C-8.5,0 -5,-8.5 0,-12 Z" fill="#fbcfe8"/>
    <path d="M0,-8.5 Q0.8,0 0,10" stroke="#db2777" stroke-width="0.8" fill="none"/>
  </g>
</svg>
